<svg width="9" height="9" viewBox="0 0 9 9" fill="none" xmlns="http://www.w3.org/2000/svg">
<g clip-path="url(#clip0_627_39)">
<path fill-rule="evenodd" clip-rule="evenodd" d="M5.14286 0.642857C5.14286 0.287817 4.85504 0 4.5 0C4.14496 0 3.85714 0.287817 3.85714 0.642857V3.85714H0.642857C0.287817 3.85714 0 4.14496 0 4.5C0 4.85504 0.287817 5.14286 0.642857 5.14286H3.85714V8.35714C3.85714 8.71219 4.14496 9 4.5 9C4.85504 9 5.14286 8.71219 5.14286 8.35714V5.14286H8.35714C8.71219 5.14286 9 4.85504 9 4.5C9 4.14496 8.71219 3.85714 8.35714 3.85714H5.14286V0.642857Z" fill="black"/>
</g>
<defs>
<clipPath id="clip0_627_39">
<rect width="9" height="9" fill="white"/>
</clipPath>
</defs>
</svg>
